<svg width="450" height="321" viewBox="0 0 450 321" fill="none" xmlns="http://www.w3.org/2000/svg">
<path d="M406.491 276.719C420.062 263.997 432.361 250.002 443.387 234.734C454.413 219.467 450.902 205.089 438.395 197.202C425.253 188.916 409.884 200.383 401.402 211.833C392.92 223.284 383.802 233.674 374.048 243.004C364.718 251.91 354.964 259.119 344.786 264.633C335.032 270.146 325.066 272.902 314.887 272.902C299.196 272.902 286.897 267.601 277.992 256.999C269.086 246.397 262.3 233.886 257.635 219.467C253.394 205.048 250.638 190.629 249.365 176.21C248.093 161.367 247.245 149.916 246.821 141.858C246.397 135.921 243.852 130.62 239.187 125.955C234.946 121.29 229.857 118.957 223.92 118.957C217.559 118.957 212.045 121.078 207.38 125.319C202.715 129.136 199.959 134.013 199.111 139.95C196.142 162.003 190.841 181.087 183.207 197.202C175.998 213.318 167.728 226.677 158.398 237.279C149.492 247.881 139.95 255.727 129.772 260.816C120.018 265.905 111.324 268.449 103.69 268.449C93.0879 268.449 84.182 266.329 76.9725 262.088C69.7629 257.847 64.0377 252.334 59.7968 245.549C55.5559 238.763 52.5873 231.342 50.8909 223.284C49.1945 214.802 48.3464 206.532 48.3464 198.475C48.3464 172.605 52.3752 150.34 60.4329 131.68C68.9148 112.596 79.305 96.9048 91.6036 84.6061C103.902 71.8834 117.473 62.5534 132.316 56.6161C147.16 50.6789 161.155 47.7102 174.301 47.7102C183.207 47.7102 191.053 48.7704 197.838 50.8909C205.048 52.5873 211.197 54.7077 216.286 57.2523C221.375 59.7968 225.404 62.3414 228.373 64.8859C231.342 67.0064 233.25 68.4907 234.098 69.3388C238.763 74.0038 244.488 76.3363 251.274 76.3363C257.635 76.3363 263.148 74.0038 267.813 69.3388C272.478 64.2498 274.811 58.5245 274.811 52.1632C274.811 46.2259 272.478 40.5007 267.813 34.9875C267.389 34.5634 265.057 32.655 260.816 29.2623C256.575 25.4454 250.426 21.4166 242.368 17.1757C234.734 12.9348 225.404 9.11795 214.378 5.72523C203.352 1.90841 191.265 0 178.118 0C158.61 0 138.254 4.24091 117.049 12.7227C96.2686 21.2045 77.1845 33.9273 59.7968 50.8909C42.4091 67.8545 27.99 89.0591 16.5395 114.505C5.51318 139.526 0 168.576 0 201.655C0 218.195 2.3325 233.462 6.9975 247.457C12.0866 261.452 19.0841 273.751 27.99 284.353C36.8959 294.531 47.7102 302.589 60.4329 308.526C73.1557 314.039 87.3627 316.796 103.054 316.796C122.986 316.796 142.919 309.798 162.851 295.803C182.783 281.384 199.959 262.088 214.378 237.915C222.012 261.664 234.098 281.384 250.638 297.076C267.601 312.767 288.382 320.613 312.979 320.613C330.367 320.613 346.906 316.584 362.598 308.526C378.289 300.044 392.92 289.442 406.491 276.719Z" fill="white"/>
</svg>
